
<svg width="512" height="512" viewBox="0 0 512 512" xmlns="http://www.w3.org/2000/svg">
  <defs>
    <radialGradient id="bg" cx="50%" cy="32%" r="85%">
      <stop offset="0%" stop-color="#232327"/>
      <stop offset="100%" stop-color="#0a0a0b"/>
    </radialGradient>
    <linearGradient id="iron" x1="0" y1="0" x2="0" y2="1">
      <stop offset="0%" stop-color="#ffb02e"/>
      <stop offset="55%" stop-color="#ff7a1f"/>
      <stop offset="100%" stop-color="#f24e12"/>
    </linearGradient>
    <radialGradient id="glow" cx="50%" cy="50%" r="50%">
      <stop offset="0%" stop-color="#ff7a1f" stop-opacity="0.55"/>
      <stop offset="100%" stop-color="#ff7a1f" stop-opacity="0"/>
    </radialGradient>
  </defs>
  <rect width="512" height="512" fill="url(#bg)"/>
  <g transform="translate(0 0) scale(1)">
    <ellipse cx="256" cy="300" rx="215" ry="150" fill="url(#glow)"/>
    <g fill="url(#iron)">
      <!-- horn -->
      <path d="M150 168 C 105 172 62 190 34 220 C 68 238 112 250 150 256 Z"/>
      <!-- face -->
      <rect x="132" y="150" width="330" height="106" rx="16"/>
      <!-- waist -->
      <path d="M212 256 h170 v34 c0 22 15 41 37 47 l26 7 c10 3 10 12 0 15 l-26 7 h-244 l-26 -7 c-10 -3 -10 -12 0 -15 l26 -7 c22 -6 37 -25 37 -47 Z"/>
      <!-- base -->
      <path d="M196 322 h202 l36 44 h-274 Z"/>
      <rect x="140" y="366" width="314" height="34" rx="10"/>
    </g>
    <!-- spark -->
    <path d="M96 84 L108 116 L140 128 L108 140 L96 172 L84 140 L52 128 L84 116 Z" fill="#ffd166"/>
    <circle cx="170" cy="96" r="8" fill="#ff9d2e"/>
    <circle cx="130" cy="52" r="5" fill="#ff7a1f"/>
  </g>
</svg>